<svg width="260" height="212" viewBox="0 0 260 212" fill="none" xmlns="http://www.w3.org/2000/svg">
<path d="M180.984 97H179.768V92.136C179.768 90.6213 179.229 89.864 178.152 89.864C177.533 89.864 176.968 90.184 176.456 90.824C175.955 91.464 175.688 92.344 175.656 93.464V97H174.44V85.8H175.656V90.552C175.976 89.976 176.376 89.5387 176.856 89.24C177.347 88.9307 177.848 88.776 178.36 88.776C180.109 88.776 180.984 89.896 180.984 92.136V97ZM183.66 87.256C183.532 87.1067 183.468 86.92 183.468 86.696C183.468 86.472 183.532 86.2907 183.66 86.152C183.788 86.0027 183.974 85.928 184.22 85.928C184.465 85.928 184.657 86.0027 184.796 86.152C184.934 86.3013 185.004 86.4827 185.004 86.696C185.004 86.9093 184.934 87.0907 184.796 87.24C184.657 87.3893 184.465 87.464 184.22 87.464C183.974 87.464 183.788 87.3947 183.66 87.256ZM183.628 97V89H184.844V97H183.628ZM191.369 88.776C192.287 88.776 193.039 89.1227 193.625 89.816C194.212 90.5093 194.505 91.512 194.505 92.824C194.505 94.1253 194.132 95.1867 193.385 96.008C192.649 96.8187 191.711 97.224 190.569 97.224C190.004 97.224 189.433 97.1227 188.857 96.92V100.6H187.641V90.6L187.481 89L188.537 88.92L188.809 90.392C189.407 89.3147 190.26 88.776 191.369 88.776ZM193.289 92.856C193.289 91.8853 193.087 91.144 192.681 90.632C192.276 90.12 191.759 89.864 191.129 89.864C190.511 89.864 189.983 90.168 189.545 90.776C189.108 91.384 188.879 92.2533 188.857 93.384V95.688C189.412 95.9867 189.983 96.136 190.569 96.136C191.359 96.136 192.009 95.832 192.521 95.224C193.033 94.6053 193.289 93.816 193.289 92.856ZM196.993 96.056C196.406 95.2667 196.113 94.248 196.113 93C196.113 91.752 196.406 90.7387 196.993 89.96C197.579 89.1707 198.454 88.776 199.617 88.776C200.79 88.776 201.675 89.1707 202.273 89.96C202.87 90.7387 203.169 91.752 203.169 93C203.169 94.248 202.87 95.2667 202.273 96.056C201.675 96.8347 200.79 97.224 199.617 97.224C198.454 97.224 197.579 96.8347 196.993 96.056ZM197.905 90.744C197.521 91.32 197.329 92.072 197.329 93C197.329 93.928 197.521 94.6853 197.905 95.272C198.289 95.848 198.865 96.136 199.633 96.136C200.401 96.136 200.977 95.848 201.361 95.272C201.755 94.6853 201.953 93.928 201.953 93C201.953 92.072 201.755 91.32 201.361 90.744C200.977 90.1573 200.401 89.864 199.633 89.864C198.865 89.864 198.289 90.1573 197.905 90.744ZM204.433 90.04V89H205.649L206.033 86.6H206.865V89H208.737V90.04H206.865V95.256C206.865 95.8427 207.105 96.136 207.585 96.136C207.947 96.136 208.342 95.9813 208.769 95.672L209.217 96.488C208.598 96.9787 207.995 97.224 207.409 97.224C206.822 97.224 206.379 97.0853 206.081 96.808C205.793 96.52 205.649 96.0027 205.649 95.256V90.04H204.433ZM213.298 97.224C212.338 97.224 211.543 96.888 210.914 96.216C210.295 95.544 209.986 94.5573 209.986 93.256C209.986 91.9547 210.354 90.8827 211.09 90.04C211.826 89.1973 212.78 88.776 213.954 88.776C214.7 88.776 215.303 89.0053 215.762 89.464C216.22 89.912 216.45 90.4773 216.45 91.16C216.45 91.832 216.098 92.4507 215.394 93.016C214.7 93.5813 213.687 93.864 212.354 93.864C212.002 93.864 211.628 93.848 211.234 93.816C211.308 94.5733 211.538 95.1493 211.922 95.544C212.316 95.9387 212.791 96.136 213.346 96.136C214.274 96.136 215.047 95.848 215.666 95.272L216.242 96.056C215.431 96.8347 214.45 97.224 213.298 97.224ZM213.906 89.864C213.17 89.864 212.556 90.1253 212.066 90.648C211.586 91.1707 211.303 91.864 211.218 92.728C211.57 92.7813 211.959 92.808 212.386 92.808C213.303 92.808 214.007 92.6373 214.498 92.296C214.988 91.9547 215.234 91.56 215.234 91.112C215.234 90.7813 215.111 90.4933 214.866 90.248C214.631 89.992 214.311 89.864 213.906 89.864ZM222.296 88.776C224.045 88.776 224.92 89.896 224.92 92.136V97H223.704V92.136C223.704 90.6213 223.165 89.864 222.088 89.864C221.469 89.864 220.904 90.184 220.392 90.824C219.89 91.464 219.624 92.344 219.592 93.464V97H218.376V90.6L218.216 89L219.272 88.92L219.576 90.568C219.906 89.992 220.317 89.5493 220.808 89.24C221.298 88.9307 221.794 88.776 222.296 88.776ZM227.325 89H228.541V93.864C228.541 95.3787 229.08 96.136 230.157 96.136C230.776 96.136 231.336 95.8213 231.837 95.192C232.349 94.552 232.621 93.672 232.653 92.552V89H233.869V95.4L234.029 97L232.973 97.08L232.653 95.432C232.333 96.008 231.928 96.4507 231.437 96.76C230.946 97.0693 230.45 97.224 229.949 97.224C228.2 97.224 227.325 96.104 227.325 93.864V89ZM238.69 96.12C239.16 96.12 239.554 96.008 239.874 95.784C240.194 95.56 240.354 95.2827 240.354 94.952C240.354 94.6107 240.264 94.344 240.082 94.152C239.901 93.9493 239.704 93.8053 239.49 93.72C239.288 93.6347 238.994 93.5387 238.61 93.432C238.226 93.3147 237.933 93.2187 237.73 93.144C237.528 93.0587 237.288 92.9307 237.01 92.76C236.488 92.44 236.226 91.896 236.226 91.128C236.226 90.3493 236.488 89.7627 237.01 89.368C237.533 88.9733 238.146 88.776 238.85 88.776C239.288 88.776 239.725 88.8347 240.162 88.952C240.61 89.0693 240.946 89.192 241.17 89.32L240.722 90.296C240.21 90.0187 239.586 89.88 238.85 89.88C238.477 89.88 238.146 89.9813 237.858 90.184C237.581 90.376 237.442 90.6267 237.442 90.936C237.442 91.2347 237.528 91.4693 237.698 91.64C237.869 91.8107 238.045 91.9333 238.226 92.008C238.408 92.0827 238.685 92.1733 239.058 92.28C239.432 92.3867 239.73 92.488 239.954 92.584C240.189 92.6693 240.45 92.808 240.738 93C241.293 93.3733 241.57 93.9653 241.57 94.776C241.57 95.576 241.293 96.184 240.738 96.6C240.194 97.016 239.512 97.224 238.69 97.224C237.581 97.224 236.642 96.8667 235.874 96.152L236.53 95.272C237.117 95.8373 237.837 96.12 238.69 96.12ZM245.981 97.224C245.064 97.224 244.312 96.8773 243.725 96.184C243.138 95.4907 242.845 94.4933 242.845 93.192C242.845 91.88 243.213 90.8187 243.949 90.008C244.696 89.1867 245.618 88.776 246.717 88.776C247.826 88.776 248.824 89.0853 249.709 89.704V95.4L249.869 97L248.813 97.08L248.541 95.64C247.944 96.696 247.09 97.224 245.981 97.224ZM244.061 93.16C244.061 94.12 244.264 94.856 244.669 95.368C245.074 95.88 245.592 96.136 246.221 96.136C246.861 96.136 247.4 95.8213 247.837 95.192C248.274 94.552 248.493 93.6507 248.493 92.488V90.264C247.96 89.9973 247.389 89.864 246.781 89.864C245.992 89.864 245.341 90.1733 244.829 90.792C244.317 91.4 244.061 92.1893 244.061 93.16Z" fill="black"/>
<path d="M135.376 208.256C133.851 208.256 132.704 207.728 131.936 206.672C131.179 205.616 130.8 204.245 130.8 202.56C130.8 200.875 131.179 199.504 131.936 198.448C132.704 197.392 133.851 196.864 135.376 196.864C136.379 196.864 137.291 197.115 138.112 197.616L137.664 198.688C136.96 198.251 136.197 198.032 135.376 198.032C134.277 198.032 133.451 198.453 132.896 199.296C132.352 200.128 132.08 201.216 132.08 202.56C132.08 203.904 132.352 204.997 132.896 205.84C133.451 206.672 134.277 207.088 135.376 207.088C136.283 207.088 137.099 206.864 137.824 206.416L138.384 207.408C137.467 207.973 136.464 208.256 135.376 208.256ZM142.403 208.224C141.486 208.224 140.734 207.877 140.147 207.184C139.56 206.491 139.267 205.493 139.267 204.192C139.267 202.88 139.635 201.819 140.371 201.008C141.118 200.187 142.04 199.776 143.139 199.776C144.248 199.776 145.246 200.085 146.131 200.704V206.4L146.291 208L145.235 208.08L144.963 206.64C144.366 207.696 143.512 208.224 142.403 208.224ZM140.483 204.16C140.483 205.12 140.686 205.856 141.091 206.368C141.496 206.88 142.014 207.136 142.643 207.136C143.283 207.136 143.822 206.821 144.259 206.192C144.696 205.552 144.915 204.651 144.915 203.488V201.264C144.382 200.997 143.811 200.864 143.203 200.864C142.414 200.864 141.763 201.173 141.251 201.792C140.739 202.4 140.483 203.189 140.483 204.16ZM148.042 201.04V200H149.258L149.642 197.6H150.474V200H152.346V201.04H150.474V206.256C150.474 206.843 150.714 207.136 151.194 207.136C151.557 207.136 151.951 206.981 152.378 206.672L152.826 207.488C152.207 207.979 151.605 208.224 151.018 208.224C150.431 208.224 149.989 208.085 149.69 207.808C149.402 207.52 149.258 207.003 149.258 206.256V201.04H148.042ZM156.907 208.224C155.947 208.224 155.152 207.888 154.523 207.216C153.904 206.544 153.595 205.557 153.595 204.256C153.595 202.955 153.963 201.883 154.699 201.04C155.435 200.197 156.39 199.776 157.563 199.776C158.31 199.776 158.912 200.005 159.371 200.464C159.83 200.912 160.059 201.477 160.059 202.16C160.059 202.832 159.707 203.451 159.003 204.016C158.31 204.581 157.296 204.864 155.963 204.864C155.611 204.864 155.238 204.848 154.843 204.816C154.918 205.573 155.147 206.149 155.531 206.544C155.926 206.939 156.4 207.136 156.955 207.136C157.883 207.136 158.656 206.848 159.275 206.272L159.851 207.056C159.04 207.835 158.059 208.224 156.907 208.224ZM157.515 200.864C156.779 200.864 156.166 201.125 155.675 201.648C155.195 202.171 154.912 202.864 154.827 203.728C155.179 203.781 155.568 203.808 155.995 203.808C156.912 203.808 157.616 203.637 158.107 203.296C158.598 202.955 158.843 202.56 158.843 202.112C158.843 201.781 158.72 201.493 158.475 201.248C158.24 200.992 157.92 200.864 157.515 200.864ZM161.089 201.04V200H162.305L162.689 197.6H163.521V200H165.393V201.04H163.521V206.256C163.521 206.843 163.761 207.136 164.241 207.136C164.604 207.136 164.998 206.981 165.425 206.672L165.873 207.488C165.254 207.979 164.652 208.224 164.065 208.224C163.478 208.224 163.036 208.085 162.737 207.808C162.449 207.52 162.305 207.003 162.305 206.256V201.04H161.089ZM167.602 207.056C167.015 206.267 166.722 205.248 166.722 204C166.722 202.752 167.015 201.739 167.602 200.96C168.189 200.171 169.063 199.776 170.226 199.776C171.399 199.776 172.285 200.171 172.882 200.96C173.479 201.739 173.778 202.752 173.778 204C173.778 205.248 173.479 206.267 172.882 207.056C172.285 207.835 171.399 208.224 170.226 208.224C169.063 208.224 168.189 207.835 167.602 207.056ZM168.514 201.744C168.13 202.32 167.938 203.072 167.938 204C167.938 204.928 168.13 205.685 168.514 206.272C168.898 206.848 169.474 207.136 170.242 207.136C171.01 207.136 171.586 206.848 171.97 206.272C172.365 205.685 172.562 204.928 172.562 204C172.562 203.072 172.365 202.32 171.97 201.744C171.586 201.157 171.01 200.864 170.242 200.864C169.474 200.864 168.898 201.157 168.514 201.744ZM180.994 196.8V201.312C181.581 200.288 182.445 199.776 183.586 199.776C184.482 199.776 185.213 200.123 185.778 200.816C186.354 201.509 186.642 202.512 186.642 203.824C186.642 205.125 186.269 206.187 185.522 207.008C184.786 207.819 183.885 208.224 182.818 208.224C181.751 208.224 180.978 207.925 180.498 207.328C180.018 206.72 179.778 205.899 179.778 204.864V196.8H180.994ZM185.426 203.84C185.426 202.869 185.245 202.133 184.882 201.632C184.519 201.12 184.007 200.864 183.346 200.864C182.695 200.864 182.146 201.157 181.698 201.744C181.25 202.331 181.015 203.232 180.994 204.448V204.864C180.994 205.536 181.133 206.085 181.41 206.512C181.698 206.928 182.13 207.136 182.706 207.136C183.495 207.136 184.146 206.832 184.658 206.224C185.17 205.605 185.426 204.811 185.426 203.84Z" fill="black"/>
<line x1="67" y1="192.5" x2="259" y2="192.5" stroke="black"/>
<line x1="67.5" y1="1" x2="67.5" y2="193" stroke="black"/>
<line x1="67.3536" y1="0.646447" x2="259.354" y2="192.646" stroke="black"/>
<rect x="67.5" y="176.5" width="16" height="16" stroke="black"/>
<path d="M5.376 102.256C3.85067 102.256 2.704 101.728 1.936 100.672C1.17867 99.616 0.8 98.2453 0.8 96.56C0.8 94.8747 1.17867 93.504 1.936 92.448C2.704 91.392 3.85067 90.864 5.376 90.864C6.37867 90.864 7.29067 91.1147 8.112 91.616L7.664 92.688C6.96 92.2507 6.19733 92.032 5.376 92.032C4.27733 92.032 3.45067 92.4533 2.896 93.296C2.352 94.128 2.08 95.216 2.08 96.56C2.08 97.904 2.352 98.9973 2.896 99.84C3.45067 100.672 4.27733 101.088 5.376 101.088C6.28267 101.088 7.09867 100.864 7.824 100.416L8.384 101.408C7.46667 101.973 6.464 102.256 5.376 102.256ZM12.4029 102.224C11.4855 102.224 10.7335 101.877 10.1469 101.184C9.56021 100.491 9.26688 99.4933 9.26688 98.192C9.26688 96.88 9.63488 95.8187 10.3709 95.008C11.1175 94.1867 12.0402 93.776 13.1389 93.776C14.2482 93.776 15.2455 94.0853 16.1309 94.704V100.4L16.2909 102L15.2349 102.08L14.9629 100.64C14.3655 101.696 13.5122 102.224 12.4029 102.224ZM10.4829 98.16C10.4829 99.12 10.6855 99.856 11.0909 100.368C11.4962 100.88 12.0135 101.136 12.6429 101.136C13.2829 101.136 13.8215 100.821 14.2589 100.192C14.6962 99.552 14.9149 98.6507 14.9149 97.488V95.264C14.3815 94.9973 13.8109 94.864 13.2029 94.864C12.4135 94.864 11.7629 95.1733 11.2509 95.792C10.7389 96.4 10.4829 97.1893 10.4829 98.16ZM18.0421 95.04V94H19.2581L19.6421 91.6H20.4741V94H22.3461V95.04H20.4741V100.256C20.4741 100.843 20.7141 101.136 21.1941 101.136C21.5568 101.136 21.9515 100.981 22.3781 100.672L22.8261 101.488C22.2075 101.979 21.6048 102.224 21.0181 102.224C20.4315 102.224 19.9888 102.085 19.6901 101.808C19.4021 101.52 19.2581 101.003 19.2581 100.256V95.04H18.0421ZM26.907 102.224C25.947 102.224 25.1523 101.888 24.523 101.216C23.9043 100.544 23.595 99.5573 23.595 98.256C23.595 96.9547 23.963 95.8827 24.699 95.04C25.435 94.1973 26.3897 93.776 27.563 93.776C28.3097 93.776 28.9123 94.0053 29.371 94.464C29.8297 94.912 30.059 95.4773 30.059 96.16C30.059 96.832 29.707 97.4507 29.003 98.016C28.3097 98.5813 27.2963 98.864 25.963 98.864C25.611 98.864 25.2377 98.848 24.843 98.816C24.9177 99.5733 25.147 100.149 25.531 100.544C25.9257 100.939 26.4003 101.136 26.955 101.136C27.883 101.136 28.6563 100.848 29.275 100.272L29.851 101.056C29.0403 101.835 28.059 102.224 26.907 102.224ZM27.515 94.864C26.779 94.864 26.1657 95.1253 25.675 95.648C25.195 96.1707 24.9123 96.864 24.827 97.728C25.179 97.7813 25.5683 97.808 25.995 97.808C26.9123 97.808 27.6163 97.6373 28.107 97.296C28.5977 96.9547 28.843 96.56 28.843 96.112C28.843 95.7813 28.7203 95.4933 28.475 95.248C28.2403 94.992 27.9203 94.864 27.515 94.864ZM31.089 95.04V94H32.305L32.689 91.6H33.521V94H35.393V95.04H33.521V100.256C33.521 100.843 33.761 101.136 34.241 101.136C34.6037 101.136 34.9983 100.981 35.425 100.672L35.873 101.488C35.2543 101.979 34.6517 102.224 34.065 102.224C33.4783 102.224 33.0357 102.085 32.737 101.808C32.449 101.52 32.305 101.003 32.305 100.256V95.04H31.089ZM37.6019 101.056C37.0152 100.267 36.7219 99.248 36.7219 98C36.7219 96.752 37.0152 95.7387 37.6019 94.96C38.1885 94.1707 39.0632 93.776 40.2259 93.776C41.3992 93.776 42.2845 94.1707 42.8819 94.96C43.4792 95.7387 43.7779 96.752 43.7779 98C43.7779 99.248 43.4792 100.267 42.8819 101.056C42.2845 101.835 41.3992 102.224 40.2259 102.224C39.0632 102.224 38.1885 101.835 37.6019 101.056ZM38.5139 95.744C38.1299 96.32 37.9379 97.072 37.9379 98C37.9379 98.928 38.1299 99.6853 38.5139 100.272C38.8979 100.848 39.4739 101.136 40.2419 101.136C41.0099 101.136 41.5859 100.848 41.9699 100.272C42.3645 99.6853 42.5619 98.928 42.5619 98C42.5619 97.072 42.3645 96.32 41.9699 95.744C41.5859 95.1573 41.0099 94.864 40.2419 94.864C39.4739 94.864 38.8979 95.1573 38.5139 95.744ZM52.4341 102.224C51.5168 102.224 50.7648 101.877 50.1781 101.184C49.5915 100.491 49.2981 99.4933 49.2981 98.192C49.2981 96.88 49.6661 95.8187 50.4021 95.008C51.1488 94.1867 52.0715 93.776 53.1701 93.776C54.2795 93.776 55.2768 94.0853 56.1621 94.704V100.4L56.3221 102L55.2661 102.08L54.9941 100.64C54.3968 101.696 53.5435 102.224 52.4341 102.224ZM50.5141 98.16C50.5141 99.12 50.7168 99.856 51.1221 100.368C51.5275 100.88 52.0448 101.136 52.6741 101.136C53.3141 101.136 53.8528 100.821 54.2901 100.192C54.7275 99.552 54.9461 98.6507 54.9461 97.488V95.264C54.4128 94.9973 53.8421 94.864 53.2341 94.864C52.4448 94.864 51.7941 95.1733 51.2821 95.792C50.7701 96.4 50.5141 97.1893 50.5141 98.16Z" fill="black"/>
</svg>
